<?xml version="1.0" standalone="no"?>
<!DOCTYPE svg PUBLIC "-//W3C//DTD SVG 20010904//EN"
 "http://www.w3.org/TR/2001/REC-SVG-20010904/DTD/svg10.dtd">
<svg version="1.0" xmlns="http://www.w3.org/2000/svg"
 width="300.000000pt" height="300.000000pt" viewBox="0 0 300.000000 300.000000"
 preserveAspectRatio="xMidYMid meet">
<metadata>
Created by potrace 1.10, written by Peter Selinger 2001-2011
</metadata>
<g transform="translate(0.000000,300.000000) scale(0.100000,-0.100000)"
fill="white" stroke="none">
<path d="M735 2385 c-51 -18 -110 -81 -124 -131 -15 -55 -15 -1454 0 -1509 15
-52 82 -119 134 -134 61 -17 1225 -15 1225 2 0 6 -9 44 -20 82 -11 38 -20 74
-20 80 0 5 39 -31 88 -81 48 -50 152 -148 232 -219 l145 -128 3 933 c1 657 -1
945 -9 974 -14 53 -81 120 -134 135 -28 7 -262 11 -760 11 -595 -1 -727 -3
-760 -15z m569 -495 c-55 -19 -139 -61 -169 -84 -12 -9 13 -4 62 14 189 68
448 63 622 -12 24 -10 46 -16 48 -14 8 8 -99 65 -154 83 -60 19 -68 33 -20 33
47 0 132 -27 201 -63 55 -29 62 -37 92 -102 64 -139 106 -301 119 -460 l7 -80
-43 -43 c-58 -57 -137 -93 -216 -100 -57 -4 -64 -3 -83 19 -45 52 -44 54 23
87 35 17 74 43 87 58 14 15 21 25 15 23 -5 -3 -37 -17 -70 -33 -199 -92 -432
-91 -641 4 l-69 31 33 -34 c18 -19 55 -45 83 -57 27 -13 49 -26 49 -29 -1 -3
-16 -24 -34 -45 l-34 -40 -59 11 c-82 15 -149 49 -204 103 l-46 45 9 102 c10
124 53 298 103 415 33 78 42 90 83 116 60 37 125 61 187 71 69 10 79 1 19 -19z"/>
<path d="M1264 1530 c-11 -4 -33 -23 -48 -41 -24 -28 -27 -39 -23 -78 4 -34
13 -52 36 -73 72 -64 191 -9 191 87 0 76 -85 134 -156 105z"/>
<path d="M1655 1531 c-78 -34 -93 -152 -26 -200 75 -54 161 -1 161 98 0 71
-75 127 -135 102z"/>
</g>
</svg>
