<?xml version="1.0" standalone="no"?>
<!DOCTYPE svg PUBLIC "-//W3C//DTD SVG 20010904//EN"
 "http://www.w3.org/TR/2001/REC-SVG-20010904/DTD/svg10.dtd">
<svg version="1.0" xmlns="http://www.w3.org/2000/svg"
 width="300.000000pt" height="300.000000pt" viewBox="0 0 300.000000 300.000000"
 preserveAspectRatio="xMidYMid meet">
<metadata>
Created by potrace 1.10, written by Peter Selinger 2001-2011
</metadata>
<g transform="translate(0.000000,300.000000) scale(0.100000,-0.100000)"
fill="#69428d" stroke="none">
<path d="M1436 2833 c-3 -3 -6 -57 -6 -118 0 -151 -48 -426 -96 -548 -30 -77
-72 -147 -87 -147 -29 0 -120 -53 -220 -128 -114 -86 -267 -232 -267 -255 0
-20 38 -57 59 -57 36 0 138 -79 241 -186 58 -60 130 -127 160 -150 43 -31 64
-57 94 -114 74 -141 103 -225 105 -309 5 -194 31 -689 38 -711 9 -29 18 101
27 410 9 268 20 372 57 504 48 174 76 217 175 266 54 26 93 59 194 160 69 70
135 130 146 134 10 4 30 20 43 37 23 29 23 30 5 51 -11 11 -36 29 -56 39 -21
11 -68 45 -105 77 -38 32 -95 77 -128 99 -34 23 -67 48 -75 58 -8 9 -43 32
-79 50 -99 50 -127 106 -161 315 -25 157 -40 319 -40 432 0 80 -7 107 -24 91z
m148 -939 c93 -24 211 -86 316 -165 52 -40 108 -75 124 -78 16 -4 31 -12 34
-20 3 -10 -4 -11 -29 -6 -57 12 -111 42 -194 110 -111 91 -255 161 -255 125 0
-5 3 -10 8 -10 4 0 16 -7 26 -15 16 -12 17 -17 6 -30 -8 -10 -9 -15 -2 -15 6
0 9 -7 6 -15 -5 -11 1 -15 22 -16 17 -1 22 -3 12 -6 -22 -6 -24 -23 -2 -23 11
0 14 -6 9 -20 -5 -16 -2 -20 17 -21 17 -1 18 -3 6 -6 -20 -5 -23 -18 -7 -28 6
-5 4 -12 -8 -21 -13 -9 -14 -13 -4 -14 11 0 11 -3 0 -17 -12 -14 -12 -17 0
-21 11 -4 11 -6 0 -13 -12 -8 -12 -10 -1 -18 11 -6 10 -10 -4 -15 -15 -6 -16
-9 -5 -15 10 -7 8 -10 -8 -16 -14 -4 -20 -12 -17 -21 4 -10 -2 -14 -21 -14
-20 0 -23 -3 -14 -14 9 -11 7 -15 -10 -19 -12 -3 -18 -10 -14 -16 3 -7 -2 -11
-14 -11 -12 0 -21 -5 -21 -11 0 -5 -5 -7 -10 -4 -6 4 -17 2 -25 -5 -8 -6 -16
-7 -19 -2 -3 6 1 16 10 23 24 20 63 92 80 150 32 104 18 204 -38 287 -28 41
-30 42 -84 42 -47 0 -58 -4 -80 -27 -39 -44 -52 -75 -62 -148 -16 -123 22
-241 97 -296 17 -12 28 -26 25 -31 -3 -5 -11 -4 -18 1 -7 6 -16 8 -19 4 -4 -3
-7 -1 -7 6 0 8 -7 11 -15 7 -9 -3 -15 1 -15 11 0 12 -3 13 -14 4 -11 -9 -15
-9 -19 1 -4 10 -8 10 -17 -2 -10 -12 -11 -11 -7 8 4 18 2 22 -9 18 -9 -3 -14
1 -14 14 0 11 -4 20 -10 20 -5 0 -7 7 -3 16 5 13 2 15 -14 10 -17 -6 -20 -3
-15 19 3 19 0 25 -12 25 -14 0 -15 4 -6 20 9 16 8 20 -5 20 -18 0 -19 12 -3
28 9 9 7 13 -7 18 -16 6 -15 9 6 25 22 16 22 18 6 25 -17 6 -17 7 0 26 14 16
15 21 3 28 -12 7 -12 12 3 28 12 13 14 21 6 29 -7 7 0 17 25 33 80 49 16 52
-84 3 -33 -16 -88 -58 -135 -104 -74 -72 -132 -109 -170 -109 -27 0 -16 17 14
23 17 4 59 33 98 70 93 86 143 124 198 148 106 47 296 62 409 33z m-116 -204
c2 -63 0 -131 -6 -150 l-9 -35 -14 30 c-15 34 -19 232 -6 280 8 28 9 29 20 10
6 -11 13 -72 15 -135z m333 -127 c-14 -51 -5 -54 17 -5 22 50 32 45 32 -17 1
-43 2 -45 15 -27 12 15 15 16 15 5 0 -26 -68 -96 -128 -133 -101 -61 -171 -79
-307 -80 -113 -1 -123 1 -180 28 -105 52 -195 163 -195 241 1 30 1 30 19 -10
l18 -40 -3 70 -4 70 13 -55 c29 -126 105 -223 205 -260 47 -18 70 -21 132 -17
100 7 160 30 219 83 54 49 88 117 99 197 l7 52 6 -40 6 -40 9 45 9 45 3 -37
c2 -21 -1 -54 -7 -75z"/>
<path d="M1804 1470 c-5 -5 -45 -29 -89 -54 -68 -39 -76 -46 -51 -46 30 0 109
45 141 80 18 20 17 38 -1 20z"/>
<path d="M1322 2598 c-39 -72 -70 -133 -68 -136 3 -2 18 -1 34 2 24 6 36 21
71 87 35 68 42 88 39 129 l-3 49 -73 -131z"/>
<path d="M1480 2692 c0 -52 92 -220 128 -233 14 -5 27 -8 29 -5 5 4 -146 276
-153 276 -2 0 -4 -17 -4 -38z"/>
<path d="M1058 2486 c-62 -22 -188 -100 -188 -116 0 -4 8 -11 17 -14 11 -5 28
5 52 27 44 42 111 85 171 108 67 27 26 22 -52 -5z"/>
<path d="M2232 2470 c-38 -34 -201 -136 -243 -152 -27 -10 -122 12 -181 43
-74 39 -160 68 -220 75 -66 8 -75 3 -70 -39 4 -33 6 -35 49 -41 80 -11 176
-44 237 -82 l58 -37 -4 -47 c-3 -33 -19 -70 -51 -124 -26 -42 -47 -78 -47 -81
0 -2 26 12 58 31 65 40 153 68 185 60 30 -7 93 -105 118 -185 27 -85 36 -240
19 -335 -22 -127 -91 -284 -160 -364 -19 -23 -20 -23 -72 -8 -29 9 -73 32 -97
51 -24 19 -45 34 -47 32 -2 -2 3 -27 11 -57 8 -30 15 -79 15 -108 0 -82 -41
-112 -177 -128 -51 -7 -52 -8 -67 -52 -9 -24 -14 -48 -11 -52 8 -13 140 11
213 40 72 28 75 28 125 13 48 -14 69 -33 282 -250 126 -129 231 -230 233 -224
4 13 -84 147 -143 216 -88 105 -180 279 -206 392 l-11 49 47 68 c42 59 137
264 133 284 -1 4 2 39 7 78 10 95 -7 87 300 134 203 32 202 39 -5 60 -125 13
-233 33 -271 50 -20 9 -28 25 -42 88 -10 42 -35 115 -57 161 -44 92 -45 97
-29 172 8 37 34 85 95 175 46 68 84 126 84 129 0 12 -18 2 -58 -35z"/>
<path d="M1780 2477 c36 -13 100 -45 142 -70 72 -44 108 -57 108 -39 0 11
-159 99 -213 116 -79 26 -113 19 -37 -7z"/>
<path d="M650 2455 c0 -4 32 -63 70 -129 77 -134 85 -170 51 -228 -30 -50 -87
-205 -101 -270 -13 -67 14 -55 -270 -118 -166 -37 -211 -49 -184 -50 5 -1 101
-11 213 -24 130 -15 208 -29 217 -37 7 -8 22 -60 33 -116 24 -118 83 -250 145
-320 35 -40 39 -49 38 -97 0 -66 -16 -103 -97 -232 -36 -57 -65 -106 -65 -109
0 -3 -18 -32 -39 -63 -94 -137 -169 -259 -128 -210 50 62 447 462 469 474 37
19 62 18 100 -6 62 -38 248 -87 248 -65 0 2 -12 29 -27 59 -26 54 -29 56 -93
75 -36 11 -82 31 -101 44 -30 20 -34 29 -37 71 -2 26 2 62 7 78 6 17 8 34 6
39 -3 4 -29 -3 -58 -16 -79 -37 -98 -34 -151 27 -152 174 -191 486 -89 718 26
59 78 120 101 120 8 0 53 -21 99 -46 47 -25 86 -44 88 -42 2 2 -14 41 -36 87
-21 46 -39 92 -39 103 0 11 15 40 32 65 46 64 133 105 248 118 30 4 59 10 63
14 4 4 11 25 14 46 l6 38 -60 -6 c-92 -10 -212 -52 -289 -102 -38 -24 -81 -45
-95 -45 -15 0 -74 31 -145 76 -126 81 -144 91 -144 79z"/>
<path d="M1183 2293 c-26 -5 -49 -34 -92 -121 -28 -56 -30 -65 -18 -88 11 -20
16 -23 24 -12 21 27 124 228 116 227 -4 -1 -18 -4 -30 -6z"/>
<path d="M1715 2234 c21 -38 47 -86 58 -106 16 -29 23 -35 34 -27 20 17 16 32
-22 103 -39 70 -48 80 -84 91 -23 7 -23 5 14 -61z"/>
<path d="M2156 2234 c-5 -20 4 -41 40 -96 55 -82 100 -193 117 -286 l12 -66
60 -13 c89 -18 88 -19 81 25 -16 84 -134 293 -222 392 -62 68 -80 77 -88 44z"/>
<path d="M656 2192 c-80 -82 -132 -159 -193 -288 -57 -121 -71 -164 -51 -163
7 0 47 10 88 22 l75 23 7 44 c16 96 80 251 137 335 24 35 25 45 8 69 -12 16
-18 12 -71 -42z"/>
<path d="M1861 2011 c-17 -11 -18 -8 49 -128 33 -61 53 -85 77 -97 19 -9 35
-16 37 -16 2 0 -27 56 -66 125 -38 69 -73 125 -77 125 -3 0 -12 -4 -20 -9z"/>
<path d="M961 1931 c-23 -44 -41 -82 -41 -86 0 -18 95 65 112 98 11 22 18 40
16 42 -2 1 -13 7 -24 13 -20 11 -25 6 -63 -67z"/>
<path d="M2380 1637 c-44 -12 -45 -13 -48 -57 -10 -172 -97 -376 -210 -493
l-46 -47 43 -88 c24 -48 59 -113 78 -145 40 -66 44 -66 111 19 126 158 212
420 212 646 0 56 -3 120 -6 141 -6 36 -8 37 -48 36 -22 0 -61 -6 -86 -12z"/>
<path d="M377 1596 c-3 -6 -5 -61 -6 -121 -3 -194 43 -371 136 -531 49 -84
158 -203 173 -188 15 16 140 250 140 263 0 7 -22 37 -49 67 -52 56 -145 228
-176 324 -10 30 -21 79 -24 110 l-6 55 -50 11 c-88 19 -133 23 -138 10z"/>
<path d="M2204 1385 c-4 -15 -1 -32 7 -41 11 -14 14 -12 27 11 10 20 11 30 1
41 -17 21 -28 17 -35 -11z"/>
<path d="M667 1379 c-21 -29 -22 -53 -3 -68 19 -16 40 36 28 69 l-9 23 -16
-24z"/>
<path d="M2441 982 c-11 -27 -8 -37 48 -138 l61 -109 -150 -3 c-83 -1 -150 -6
-150 -11 0 -4 9 -16 19 -25 18 -16 36 -17 190 -11 94 4 171 9 171 11 0 4 -169
307 -174 312 -2 1 -9 -10 -15 -26z"/>
<path d="M370 829 c-45 -85 -85 -157 -87 -161 -2 -5 74 -8 169 -8 l174 0 18
31 18 30 -153 -7 -152 -7 61 114 c55 103 59 116 48 138 -12 22 -17 16 -96
-130z"/>
<path d="M886 771 c-136 -136 -134 -125 -33 -193 138 -93 370 -178 490 -178
l50 0 -7 148 c-4 81 -9 158 -11 172 -1 14 -3 35 -4 48 -1 19 -6 22 -43 22 -83
0 -285 61 -304 91 -3 5 -8 9 -12 9 -4 0 -61 -54 -126 -119z"/>
<path d="M1801 863 c-57 -27 -219 -72 -258 -73 l-23 0 0 -195 0 -195 43 0
c111 1 305 55 412 115 68 38 165 112 165 126 0 19 -157 174 -214 211 -33 21
-62 38 -65 37 -3 0 -31 -12 -60 -26z"/>
</g>
</svg>
