<?xml version="1.0" standalone="no"?>
<!DOCTYPE svg PUBLIC "-//W3C//DTD SVG 20010904//EN"
 "http://www.w3.org/TR/2001/REC-SVG-20010904/DTD/svg10.dtd">
<svg version="1.0" xmlns="http://www.w3.org/2000/svg"
 width="300.000000pt" height="300.000000pt" viewBox="0 0 300.000000 300.000000"
 preserveAspectRatio="xMidYMid meet">
<metadata>
Created by potrace 1.10, written by Peter Selinger 2001-2011
</metadata>
<g transform="translate(0.000000,300.000000) scale(0.100000,-0.100000)"
fill="white" stroke="none">
<path d="M1950 2705 c-36 -8 -103 -33 -149 -56 -227 -112 -372 -382 -333 -621
5 -32 8 -59 6 -61 -2 -2 -41 0 -86 5 -410 38 -802 233 -1098 544 -91 96 -86
96 -120 5 -34 -89 -43 -149 -38 -260 4 -82 11 -122 31 -173 41 -107 108 -200
197 -272 l35 -29 -60 5 c-33 3 -95 19 -139 36 l-78 31 7 -67 c8 -83 43 -186
87 -259 69 -113 208 -224 333 -262 81 -26 55 -36 -92 -36 -128 0 -123 5 -78
-85 82 -161 248 -290 415 -321 124 -23 122 -19 44 -71 -97 -64 -194 -111 -304
-146 -145 -47 -202 -56 -362 -56 -82 -1 -148 -3 -148 -6 0 -8 116 -71 215
-116 519 -237 1172 -192 1652 113 326 207 584 543 712 929 60 179 81 296 88
476 l6 158 46 37 c25 21 63 53 85 73 44 40 168 192 161 198 -2 2 -30 -6 -61
-18 -68 -25 -208 -60 -243 -60 -22 0 -20 3 15 28 64 47 143 140 180 213 19 38
34 73 34 78 0 5 -40 -10 -88 -34 -86 -43 -243 -95 -285 -95 -11 0 -39 17 -62
38 -129 120 -349 177 -525 137z"/>
</g>
</svg>
